<?xml version="1.0" encoding="utf-8"?>
<!-- Generator: Adobe Illustrator 25.2.0, SVG Export Plug-In . SVG Version: 6.00 Build 0)  -->
<svg version="1.1" id="レイヤー_1" xmlns="http://www.w3.org/2000/svg" xmlns:xlink="http://www.w3.org/1999/xlink" x="0px"
	 y="0px" viewBox="0 0 64 64" style="enable-background:new 0 0 64 64;" xml:space="preserve">
<style type="text/css">
	.st0{fill:#FFFFFF;}
</style>
<g id="レイヤー_2_1_">
	<polygon class="st0" points="12.5,12.5 12.5,12.5 12.5,12.5 	"/>
	<path class="st0" d="M45.4,43.3l-0.5,0.5l-3.9-3.9c7.4-8,7-20.6-1.1-28s-20.6-7-28,1.1s-7,20.6,1.1,28c7.6,7,19.3,7,26.9,0l3.9,3.9
		l-0.5,0.5l11.5,11.5l2.1-2.1L45.4,43.3z M26.4,43.2c-9.3,0-16.8-7.5-16.8-16.8c0-4.4,1.8-8.7,4.9-11.8l0,0c6.5-6.5,17.2-6.5,23.7,0
		s6.5,17.2,0,23.7C35.1,41.4,30.9,43.2,26.4,43.2z"/>
</g>
</svg>
